<svg xmlns="http://www.w3.org/2000/svg" width="192" height="192" viewBox="0 0 192 192">
  <rect width="192" height="192" rx="32" fill="#0f172a"/>
  <rect x="24" y="24" width="144" height="144" rx="20" fill="#e5e7eb"/>
  <g fill="#0f172a">
    <rect x="42" y="42" width="36" height="36"/>
    <rect x="78" y="78" width="36" height="36"/>
    <rect x="114" y="42" width="36" height="36"/>
    <rect x="42" y="114" width="36" height="36"/>
    <rect x="114" y="114" width="36" height="36"/>
  </g>
  <path d="M96 56c12 0 22 10 22 22 0 8-4 15-11 19l13 35H72l13-35c-7-4-11-11-11-19 0-12 10-22 22-22z" fill="#f59e0b"/>
</svg>
